# xmcd
#
# Track frame offsets:
#	150
#	23067
#	53070
#	74085
#	99715
#	109900
#	135905
#	162315
#	183272
#	203972
#
# Disc length: 3100 seconds
#
# Revision: 3
# Processed by: cddbd v1.5.2PL0 Copyright (c) Steve Scherf et al.
# Submitted via: EasyCDDAExtractor 12.0.1.1
#
DISCID=8a0c1a0a
DTITLE=India - Llego La India Via Eddie Palmieri
DYEAR=1992
DGENRE=Latin
TTITLE0=Vivir Sin Ti
TTITLE1=Llego La India
TTITLE2=Soledad
TTITLE3=Mi Primera Rumba
TTITLE4=Yemaya Y Ochun (Prelude)
TTITLE5=Yemaya Y Ochun
TTITLE6=Merengue Internacional
TTITLE7=Solitude
TTITLE8=I Wanna Dance
TTITLE9=Soledad (Bi-Lingual Version)
EXTD=
EXTT0=
EXTT1=
EXTT2=
EXTT3=
EXTT4=
EXTT5=
EXTT6=
EXTT7=
EXTT8=
EXTT9=
PLAYORDER=
